<svg t="1770365727071" class="icon" viewBox="0 0 1024 1024" version="1.1" xmlns="http://www.w3.org/2000/svg" p-id="1708" width="200" height="200"><path d="M884.578982 155.664243a33.840053 33.840053 0 0 0-33.840053 33.840053v767.492399H127.9154V77.832122h634.839392a33.840053 33.840053 0 1 0 0-67.680106H122.162591A61.250496 61.250496 0 0 0 61.250496 71.064111v891.685393a61.250496 61.250496 0 0 0 60.912095 61.250496h735.005948a61.250496 61.250496 0 0 0 60.912096-61.250496V189.165896a33.840053 33.840053 0 0 0-33.501653-33.501653z" p-id="1709" fill="#707070"></path><path d="M595.24653 200.333113H239.249174a33.840053 33.840053 0 1 0 0 67.680106h355.997356a33.840053 33.840053 0 1 0 0-67.680106zM762.416391 434.167878a33.840053 33.840053 0 0 0-33.840053-33.840052H239.249174a33.840053 33.840053 0 1 0 0 67.680105h489.665565a33.840053 33.840053 0 0 0 33.501652-33.840053zM250.754792 623.333774a33.840053 33.840053 0 1 0 0 67.680106h166.83146a33.840053 33.840053 0 1 0 0-67.680106zM953.61269 10.490416a33.840053 33.840053 0 0 0-47.376074 0l-222.667548 210.146729a33.840053 33.840053 0 0 0 0 47.037673 33.840053 33.840053 0 0 0 24.026438 10.490417 33.840053 33.840053 0 0 0 21.996034-7.444812l222.667548-213.192333a33.840053 33.840053 0 0 0 1.353602-47.037674z" p-id="1710" fill="#707070"></path></svg>